<svg xmlns="http://www.w3.org/2000/svg" id="Layer_3" data-name="Layer 3" viewBox="0 0 160.18 33.84">
    <defs>
        <style>
            .cls-1{fill:#2b2d30}.cls-2{fill:#00af9d}.cls-3{fill:#ec1c24}.cls-4{fill:#9da3ac}.cls-5{fill:none;stroke:#9da3ac;stroke-miterlimit:10;stroke-width:.25px}
        </style>
    </defs>
    <path d="M1189.65 304.84h-2.46v-18.26h12.64v2.19h-10.18v5.59h9v2.19h-9zM1230.83 292.07c-.68-3.2-3.35-3.78-5.11-3.78-3.31 0-6 2.44-6 7.24 0 4.3 1.53 7.61 6.06 7.61 1.6 0 4.37-.76 5.21-5h2.39c-1 6.89-6.61 7.2-8 7.2-4.15 0-8.22-2.7-8.22-9.72 0-5.62 3.2-9.51 8.52-9.51 4.71 0 7.15 2.92 7.5 6zM1250.82 286.58v11.85c0 3.74-2.34 6.9-7.35 6.9s-7-3.16-7-6.57v-12.18h2.47v11.5c0 4 2.41 5.06 4.63 5.06s4.8-1 4.8-5v-11.56zM1257.2 302.66h9.26v2.18h-11.73v-18.26h2.47zM1264.5 286.58h14.83v2.19h-6.18v16.07h-2.47v-16.07h-6.18zM1289.4 304.84h-2.47v-7.35l-6.93-10.91h2.87l5.24 8.78 5.24-8.78h2.9l-6.89 10.91z" class="cls-1" transform="translate(-1187 -286.1)"/>
    <path d="M1208.83 286.27h-.69v6.11h.59l-.51.67v.09l1.42 5.51-1.74 1.57-1.8-1.57 1.41-5.51v-.09l-.5-.67h.59v-6.11h-.69l-6 13.35c2.17 1.09 3.22 3.1 3.6 5.65h6.64c.38-2.55 1.42-4.56 3.6-5.65z" class="cls-2" transform="translate(-1187 -286.1)"/>
    <path d="M1339.56 286.4c-5.65 0-7.61 4.37-7.61 9.3s1.94 9.3 7.61 9.3 7.62-4.3 7.62-9.3-1.88-9.3-7.62-9.3zm0 17.59c-5 0-6.42-4.09-6.42-8.29s1.49-8.29 6.42-8.29 6.43 4 6.43 8.29-1.37 8.3-6.43 8.3zM1323.64 292.72c-3.57 0-5.53 2-6.1 3.71 0-4.27.65-9 6.25-9 2.45 0 4.88 1 5.14 3.64h1.18c-.18-2.78-2.55-4.65-6.11-4.65-6.46 0-7.65 4.58-7.65 10 0 4.8 1.68 8.62 7.18 8.62 4.29 0 6.92-2.68 6.92-6.22-.05-3.93-2.99-6.1-6.81-6.1zm0 11.27c-4.88 0-5.86-3.36-5.86-5.21 0-2.93 2.12-5 5.91-5 3.57 0 5.5 2.17 5.5 5 .02 3.22-2.28 5.22-5.53 5.22zM1314.73 299.9c0 3-2.3 5.1-7 5.1-4.41 0-7.13-1.95-7.18-6.32h1.19c0 3.72 2.22 5.31 6.12 5.31 2.53 0 5.65-.76 5.65-4.35 0-4-4.34-4-6.81-4v-1c2.79 0 6.35 0 6.35-3.34 0-3-2.43-3.84-5.09-3.84-3.43 0-5.73 1.47-5.73 5h-1.19c.13-4.22 2.82-6 6.92-6 3.87 0 6.28 1.69 6.28 4.68 0 2.6-1.68 3.71-4 3.91V295a4.45 4.45 0 0 1 4.49 4.9z" class="cls-1" transform="translate(-1187 -286.1)"/>
    <path d="M1343.83 317.65c-2.37 0-3.18-1.83-3.18-3.88s.82-3.87 3.18-3.87 3.17 1.81 3.17 3.87-.77 3.88-3.17 3.88zm0-7.33c-2.06 0-2.68 1.69-2.68 3.45s.6 3.46 2.68 3.46 2.67-1.66 2.67-3.46-.58-3.45-2.67-3.45zm-6.64 2.21a2.53 2.53 0 0 1 2.82 2.53 2.62 2.62 0 0 1-2.89 2.59c-2.29 0-3-1.59-3-3.59 0-2.26.5-4.16 3.19-4.16 1.48 0 2.47.78 2.55 1.93h-.5c-.1-1.1-1.12-1.51-2.14-1.51-2.33 0-2.6 2-2.6 3.76a2.51 2.51 0 0 1 2.57-1.55zm0 4.7a2.12 2.12 0 0 0 2.31-2.17 2.06 2.06 0 0 0-2.29-2.11c-1.58 0-2.46.88-2.46 2.11a2.15 2.15 0 0 0 2.45 2.17zm-3.72-1.71c0 1.23-1 2.13-2.91 2.13s-3-.81-3-2.64h.5c0 1.55.92 2.22 2.55 2.22 1 0 2.35-.32 2.35-1.82 0-1.68-1.8-1.68-2.84-1.68v-.42c1.17 0 2.65 0 2.65-1.39s-1-1.6-2.12-1.6c-1.43 0-2.39.61-2.39 2.06h-.49c0-1.76 1.17-2.48 2.88-2.48s2.61.7 2.61 1.94-.69 1.55-1.67 1.64a1.85 1.85 0 0 1 1.89 2.04zm-7.63-.45c0 2-1.84 2.59-3.55 2.59-.87 0-3.35-.31-3.38-2.71h2.37a1.28 1.28 0 0 0 .09.5c.17.45.69.54 1.13.54s1-.12 1-.68c0-.39-.33-.5-1.65-.86s-2.61-.67-2.61-2.18c0-1.74 1.52-2.49 3.1-2.49s3.14.62 3.21 2.45h-2.24a.57.57 0 0 0-.28-.6 1.29 1.29 0 0 0-.7-.19c-.32 0-.85.09-.85.51s1.14.65 2.23.95 2.14.79 2.14 2.17zm-7.16 2.41h-2.37a5.11 5.11 0 0 1-.19-1.16c-.07-.72-.13-1.46-1.07-1.46h-1.26v2.62h-2.36V310h4.5a2.23 2.23 0 0 1 2.51 2.15 1.92 1.92 0 0 1-1.15 1.88 2.08 2.08 0 0 1 1.13 1.88 4.68 4.68 0 0 0 .27 1.57zm-3.78-5.73h-1.11v1.49h1.21c.44 0 1-.07 1-.74.08-.5-.18-.75-1.09-.75zm-10.82-1.75h6.36v1.93h-4v.93h3.62v1.79h-3.62v.94h4.11v1.93h-6.48zm-7.36 0h6.36v1.93h-4v.93h3.62v1.79h-3.62v.94h4.11v1.93h-6.48zm-.74 7.52h-2.37a5.11 5.11 0 0 1-.19-1.16c-.07-.72-.13-1.46-1.07-1.46h-1.26v2.62h-2.36V310h4.5a2.23 2.23 0 0 1 2.51 2.15 1.92 1.92 0 0 1-1.15 1.88 2.08 2.08 0 0 1 1.13 1.88 4.68 4.68 0 0 0 .28 1.57zm-3.78-5.73h-1.11v1.49h1.24c.44 0 1-.07 1-.74.04-.54-.22-.79-1.13-.79zm-6.56 4.65h-2.44l-.35 1.08h-2.37l2.82-7.52h2.32l2.79 7.52H1286zm-1.16-3.92l-.75 2.31h1.46zm-7.65 3.3c.8 0 1.11-.54 1.25-1.25h2.32a3.27 3.27 0 0 1-3.51 3.13 3.94 3.94 0 0 1 0-7.88 3.13 3.13 0 0 1 3.48 3h-2.3a1.23 1.23 0 0 0-1.24-1.1c-1.11 0-1.46 1-1.46 2.06s.35 2 1.46 2z" class="cls-3" transform="translate(-1187 -286.1)"/>
    <path d="M1265.6 315.27a3 3 0 0 1-.56 1.88 1.86 1.86 0 0 1-1.54.72 1.94 1.94 0 0 1-.93-.21 1.72 1.72 0 0 1-.65-.61l-.12.71h-.8V310h1v3a1.66 1.66 0 0 1 .63-.55 1.87 1.87 0 0 1 .88-.19 1.78 1.78 0 0 1 1.55.79 3.62 3.62 0 0 1 .56 2.1zm-1-.1a3 3 0 0 0-.34-1.51 1.14 1.14 0 0 0-1-.59 1.25 1.25 0 0 0-.76.23 1.45 1.45 0 0 0-.5.59v2.33a1.59 1.59 0 0 0 .5.63 1.25 1.25 0 0 0 .77.22 1.17 1.17 0 0 0 1-.49 2.33 2.33 0 0 0 .34-1.31zM1268.38 315.77l.18.67 1.32-4.06h1.12l-2.26 6.21a2.77 2.77 0 0 1-.59.94 1.33 1.33 0 0 1-1 .41h-.3l-.28-.05.1-.77h.43a.62.62 0 0 0 .52-.28 2.81 2.81 0 0 0 .33-.62l.23-.56-2-5.27h1.1z" class="cls-4" transform="translate(-1187 -286.1)"/>
    <path d="M0 27.62h69" class="cls-5"/>
</svg>
